<?xml version="1.0" standalone="no"?>
<!DOCTYPE svg PUBLIC "-//W3C//DTD SVG 20010904//EN"
 "http://www.w3.org/TR/2001/REC-SVG-20010904/DTD/svg10.dtd">
<svg version="1.0" xmlns="http://www.w3.org/2000/svg"
 width="1000.000000pt" height="1000.000000pt" viewBox="0 0 1000.000000 1000.000000"
 preserveAspectRatio="xMidYMid meet">
<metadata>
Created by potrace 1.11, written by Peter Selinger 2001-2013
</metadata>
<g transform="translate(0.000000,1000.000000) scale(0.100000,-0.100000)"
fill="#000000" stroke="none">
<path d="M4595 9989 c-1022 -83 -1980 -472 -2785 -1131 -161 -132 -536 -507
-668 -668 -663 -809 -1043 -1749 -1132 -2795 -13 -155 -13 -635 0 -790 88
-1044 464 -1973 1127 -2790 123 -151 501 -532 653 -657 823 -678 1775 -1065
2824 -1148 166 -13 606 -13 772 0 932 73 1798 392 2554 939 417 302 805 690
1115 1116 538 741 856 1603 935 2540 13 155 13 635 0 790 -92 1088 -501 2063
-1208 2885 -165 191 -448 463 -648 623 -789 633 -1736 1007 -2748 1087 -148
12 -643 11 -791 -1z m-2146 -1219 c219 -45 371 -158 472 -353 32 -62 68 -175
69 -219 0 -5 -80 -8 -177 -8 l-178 0 -28 74 c-35 96 -87 154 -169 192 -57 26
-73 29 -173 29 -98 0 -116 -3 -167 -27 -110 -51 -191 -164 -235 -328 -26 -94
-25 -397 1 -490 28 -102 65 -170 123 -228 72 -72 145 -105 249 -110 186 -10
311 75 374 256 l23 62 173 0 c201 0 188 9 153 -106 -112 -367 -428 -566 -814
-515 -346 46 -570 265 -648 631 -29 138 -28 376 2 520 71 336 276 559 576 625
91 20 264 18 374 -5z m1181 -340 l0 -330 340 0 340 0 0 330 0 330 175 0 175 0
0 -860 0 -860 -175 0 -175 0 0 385 0 385 -340 0 -340 0 0 -385 0 -385 -175 0
-175 0 0 860 0 860 175 0 175 0 0 -330z m2585 -520 c165 -468 302 -855 303
-861 3 -6 -65 -8 -189 -7 l-194 3 -54 173 -55 172 -322 0 -322 0 -56 -175 -57
-175 -185 0 c-173 0 -186 1 -181 18 3 12 395 1111 602 1690 3 9 54 12 207 12
l203 0 300 -850z m1245 248 l345 -603 3 603 2 602 165 0 165 0 0 -860 0 -860
-181 2 -180 3 -345 600 c-190 330 -349 604 -355 609 -5 6 -9 -219 -9 -602 l0
-612 -165 0 -165 0 0 860 0 860 188 0 187 0 345 -602z m-3615 -2252 c170 -46
332 -165 394 -290 30 -61 60 -173 61 -223 0 -23 0 -23 -168 -23 l-169 0 -12
55 c-26 117 -117 186 -273 206 -150 20 -296 -20 -354 -96 -22 -30 -29 -50 -32
-99 -7 -130 41 -163 354 -238 499 -119 579 -158 661 -326 34 -68 38 -84 41
-175 7 -175 -33 -284 -147 -398 -76 -76 -170 -127 -296 -160 -67 -18 -108 -22
-250 -22 -151 0 -181 3 -267 26 -242 64 -395 205 -443 409 -8 35 -15 78 -15
96 l0 32 169 0 169 0 11 -46 c37 -147 132 -216 315 -230 92 -7 224 8 283 33
90 37 133 98 133 188 0 125 -66 167 -370 235 -438 98 -551 152 -628 297 -42
80 -55 152 -50 264 6 114 30 186 91 272 85 119 205 190 376 222 99 19 332 14
416 -9z m1095 -886 l0 -860 -175 0 -175 0 0 860 0 860 175 0 175 0 0 -860z
m702 505 l3 -355 333 355 333 355 227 0 227 0 -353 -353 -353 -353 337 -460
c185 -252 352 -480 371 -506 l35 -48 -229 0 -228 1 -264 375 -265 375 -88 -88
-88 -88 0 -287 0 -288 -175 0 -175 0 0 860 0 860 175 0 175 0 2 -355z m-1564
-2485 c317 -52 536 -260 623 -595 22 -82 24 -110 23 -305 0 -200 -2 -222 -26
-312 -80 -294 -273 -497 -543 -569 -116 -32 -374 -31 -490 0 -164 44 -290 125
-386 247 -134 171 -192 363 -192 634 0 321 82 542 262 713 106 99 232 160 388
187 70 11 268 11 341 0z m-2074 -415 c99 -207 183 -372 187 -368 4 4 82 173
174 376 l168 367 198 0 c110 0 199 -1 199 -3 0 -2 -128 -244 -285 -537 l-285
-534 0 -323 0 -323 -180 0 -180 0 0 325 0 325 -284 513 c-155 281 -288 522
-295 535 l-12 22 208 0 208 0 179 -375z m3378 -247 c3 -619 3 -623 25 -679 27
-66 70 -110 138 -141 42 -19 67 -22 160 -23 98 0 116 3 166 26 62 30 102 73
133 146 20 47 21 67 24 671 l3 622 184 0 185 0 0 -527 c0 -291 -5 -580 -10
-643 -17 -204 -61 -319 -161 -422 -67 -68 -185 -130 -294 -153 -113 -24 -276
-29 -391 -11 -329 50 -489 221 -524 556 -5 58 -10 340 -10 651 l0 549 185 0
184 0 3 -622z m2078 20 l345 -602 3 602 2 602 165 0 165 0 0 -860 0 -860 -179
0 -179 0 -343 598 c-188 328 -348 604 -356 612 -11 12 -13 -85 -13 -598 l0
-612 -165 0 -165 0 0 860 0 860 188 0 187 0 345 -602z"/>
<path d="M5596 8037 c-60 -183 -111 -338 -113 -344 -4 -10 45 -13 222 -13 177
0 226 3 223 13 -3 6 -51 158 -108 337 -56 179 -106 328 -109 332 -3 3 -55
-143 -115 -325z"/>
<path d="M3766 2730 c-146 -47 -252 -169 -302 -351 -26 -91 -26 -376 -1 -469
59 -216 188 -343 376 -373 248 -38 451 110 518 379 26 104 23 362 -5 466 -66
242 -220 369 -446 367 -50 0 -103 -7 -140 -19z"/>
</g>
</svg>
